<?xml version="1.0" encoding="UTF-8"?>
<svg xmlns="http://www.w3.org/2000/svg" xmlns:xlink="http://www.w3.org/1999/xlink" width="16px" height="16px" viewBox="0 0 16 16" version="1.1">
<g id="surface1">
<path style=" stroke:none;fill-rule:nonzero;fill:rgb(0%,0%,0%);fill-opacity:1;" d="M 11 4.5 C 10.90625 4.59375 10.851562 4.722656 10.851562 4.855469 C 10.851562 4.988281 10.90625 5.117188 11 5.210938 L 13.300781 7.511719 L 1.53125 7.511719 C 1.253906 7.511719 1.03125 7.734375 1.03125 8.011719 C 1.03125 8.285156 1.253906 8.511719 1.53125 8.511719 L 13.289062 8.511719 L 11 10.796875 C 10.804688 10.988281 10.804688 11.304688 11 11.5 C 11.195312 11.695312 11.511719 11.695312 11.703125 11.5 L 14.886719 8.320312 C 14.972656 8.238281 15.019531 8.121094 15.019531 8.003906 C 15.019531 7.882812 14.972656 7.769531 14.886719 7.683594 L 11.710938 4.5 C 11.617188 4.40625 11.488281 4.351562 11.355469 4.351562 C 11.222656 4.351562 11.09375 4.40625 11 4.5 Z M 11 4.5 "/>
</g>
</svg>
